Patient4_TMGait_0pt7_01_right_16_EMG.mot
version=1
nRows=20
nColumns=33
inDegrees=no
endheader
time	1LAddLong	2LGlutMax	3LGlutMed	4LIliopsoas	5LSemiMemb	6LBicFemLong	7LRecFem	8LVastMed	9LVastLat	10LGasMed	11LTibAnt	12lTibPost	13LPeroneusLong	14LSol	15LExtDigLong	16LFlexDigLong	17RAddLong	18RGlutMax	19RGlutMed	20RIliopsoas	21RSemiMemb	22RBicFemLong	23RRecFem	24RVastMed	25RVastLat	26RGasMed	27RTibAnt	28RTibPost	29RPeroneusLong	30RSol	31RExtDigLong	32RFlexDigLong
18.162	0.009918	-0.27618	0.33524	-0.003815	0.039978	-0.006409	0.13901	0.006104	0.078125	0.006409	0.076752	0.002899	-0.004425	0.059967	0.24429	0.010223	-0.10422	0.055847	0.6247	-0.12558	0.11414	0.074768	-0.049438	0.22354	-0.2504	0.007477	0.093079	0.004883	-0.12787	-0.070038	-0.002747	-0.029602
18.163	-0.010681	-0.31632	0.4364	-0.018158	0.054016	-0.017395	0.15259	0.004425	0.10086	0.033417	-0.018311	0.010223	-0.04837	0.053253	0.25971	0.00412	-0.021515	-0.016937	0.1561	-0.074615	0.12573	-0.09079	0.076294	0.14969	-0.30182	-0.000763	0.061951	-0.00061	-0.13046	-0.067902	-0.002594	-0.027313
18.164	-0.012054	-0.32379	0.41992	-0.007935	0.046692	-0.013123	0.20157	0.007629	0.096741	0.052338	0.066528	-0.004272	-0.063782	-0.004425	0.24109	0.003967	-0.00885	-0.084229	-0.42847	-0.022736	0.019684	-0.36072	0.38406	-0.020599	-0.401	-0.009308	0.072784	-0.019226	-0.18372	-0.10773	-0.002441	-0.027771
18.165	-0.017242	-0.36682	0.39047	-0.009155	0.036621	-0.010223	0.20737	0.009308	0.091095	0.056	0.15961	-0.000305	-0.079498	0.001373	-0.055389	-0.006104	0.010681	-0.17151	-0.45395	0.068207	-0.030823	-0.48355	0.56183	-0.16968	-0.38986	-0.006714	0.15335	-0.014496	-0.17624	-0.17181	-0.006561	-0.024567
18.166	-0.009003	-0.37705	0.37781	0.010834	0.041962	0.011902	0.20615	0.008087	0.089569	0.046692	0.20401	0.013733	-0.040588	-0.009308	-0.11841	0.00351	0.049286	-0.22736	-0.16281	0.11261	0.12329	-0.45929	0.70206	-0.18601	-0.33157	-0.014343	0.13443	-0.021057	0.10757	-0.071259	0	-0.013123
18.167	0.001526	-0.40176	0.37979	0.043182	0.034332	0.047607	0.22919	0.016479	0.096741	0.039063	-0.080414	0.006256	-0.016174	0.041809	0.015717	0.002594	0.076599	-0.36697	-0.3566	0.020294	0.27939	-0.26916	0.80994	-0.23148	-0.28305	-0.037689	0.13733	-0.019989	0.18494	-0.13473	-0.003204	-0.020447
18.168	-0.013275	-0.37231	0.40817	0.022736	0.037384	0.009613	0.21973	0.015106	0.088501	0.004578	-0.002747	0.014038	-0.002441	0.09552	0.057831	-0.001984	0.054626	-0.68329	-0.77347	-0.009155	0.15656	-0.2417	0.52445	-0.24124	-0.063324	-0.017242	0.14465	-0.016632	-0.32364	-0.26245	-0.000916	-0.021667
18.169	-0.080872	-0.31082	0.39475	0.020752	0.040588	0.017395	0.20996	0.011597	0.10101	-0.001221	-0.030365	0.011444	0.02182	0.098877	-0.094757	-0.002747	-0.054626	-0.88119	-1.3673	-0.031586	-0.21454	-0.09964	0.12039	-0.1236	0.27786	-0.015564	0.12314	-0.000916	-0.39459	-0.36377	0.001221	-0.02182
18.17	-0.026703	-0.29037	0.42282	0.059814	0.032959	-0.006714	0.22003	0.011749	0.10223	0.015564	0.20996	0.004578	-0.04776	0.087128	0.062256	-0.009766	-0.096436	-1.1003	-1.7488	0.017548	-0.1329	0.10208	0.053558	0.028839	0.35034	-0.049286	0.087128	0.000153	-0.33661	-0.3125	-0.004425	-0.023651
18.171	-0.058746	-0.17716	0.42984	0.021515	0.037689	-0.01297	0.25223	0.014343	0.096741	0.031433	0.2533	0.00473	-0.095825	0.054474	0.13611	-0.014496	-0.12268	-1.1395	-2.0549	-0.008392	-0.14343	0.27039	0.13611	0.27115	0.29205	-0.028687	0.090637	-0.10651	-0.28992	0.15106	-0.002747	-0.025482
18.172	-0.02243	-0.081024	0.42893	-0.016174	0.047913	0.010223	0.2832	0.016937	0.093536	0.029907	0.088043	-0.00946	-0.033417	0.066223	0.054321	-0.00824	-0.096741	-1.192	-1.8538	0.007935	-0.003052	0.24887	0.20645	0.383	0.23041	-0.009155	0.085144	-0.12878	-0.20966	0.77301	-0.002747	-0.013275
18.173	-0.019531	0.0383	0.45059	-0.024872	0.04303	0.029755	0.27908	0.008545	0.093384	0.031128	-0.26001	-0.003052	0.042419	0.062103	-0.17181	-0.010376	-0.05661	-1.312	-1.5503	0.038757	-0.053406	0.35019	0.41809	0.42541	0.24109	-0.00351	0.081482	-0.27786	-0.02182	0.85312	-0.003052	-0.011749
18.174	-0.030518	0.17364	0.34302	-0.002289	0.040741	0.046844	0.30716	0.007782	0.099487	0.036926	-0.28427	-0.005341	0.063782	0.077057	-0.058289	-0.003815	-0.001831	-1.3106	-1.3533	-0.002747	-0.067291	-0.031586	0.68344	0.28275	0.13473	-0.04425	0.11246	0.14084	0.15366	0.71228	-0.004578	-0.016937
18.175	-0.025024	0.31845	0.30991	-0.010986	0.039978	0.03006	0.31311	0.013275	0.10407	0.05722	-0.14069	-0.005341	-0.006409	0.12039	0.39307	-0.014191	0.014648	-1.275	-1.3095	-0.02655	-0.051422	-0.44571	0.82077	0.14145	0.074768	0.000763	0.11444	0.27847	0.094757	0.41336	0.000305	-0.019226
18.176	-0.030823	0.42877	0.30807	-0.009766	0.038147	-0.001221	0.33508	0.001526	0.10925	0.063019	-0.14557	-0.00412	-0.080109	0.14938	0.38559	-0.012512	0.011749	-1.2619	-0.99213	-0.044861	-0.019989	-0.34088	0.8197	0.19302	-0.075684	0.023804	0.10544	0.072174	-0.081787	0.14557	-0.000916	-0.0177
18.177	-0.00885	0.5394	0.31158	-0.012817	0.032501	0.00061	0.35706	-0.005188	0.10529	0.068512	-0.12192	0.005188	-0.051727	0.14755	-0.13351	0.006866	-0.009918	-1.2807	-0.67902	0.015259	0.007324	-0.31509	0.85602	0.17502	-0.17838	-0.024414	0.17929	0.015564	-0.30594	0.11536	-0.004272	-0.023193
18.178	-0.011749	0.62729	0.2565	-0.014648	0.028687	-0.010834	0.38727	-0.001221	0.087891	0.072327	0.10162	0.003204	-0.042267	0.15518	0.11658	-0.003204	-0.005035	-1.2636	-0.85968	0.058441	-0.005798	-0.31921	0.83572	0.13031	-0.1651	-0.037689	0.15243	-0.009003	-0.19898	0.009766	-0.000153	-0.010223
18.179	-0.014191	0.77225	0.23224	-0.000916	0.03479	0.006561	0.37888	-0.006104	0.06012	0.025177	0.095367	-0.002899	0.048828	0.17303	-0.22064	0.00946	-0.009003	-0.9848	-0.68481	0.030975	0.004883	-0.24643	0.77499	0.10513	-0.14877	0.024872	0.22156	-0.00061	-0.027924	-0.20187	-0.005951	-0.010223
18.18	-0.007477	0.85617	0.22339	-0.000153	0.018921	0.004883	0.30914	-0.006714	0.057373	-0.011597	-0.047455	0.015259	0.11444	0.15152	-0.36301	0.008698	-0.000916	-0.71213	-0.40375	-0.018158	0.006561	-0.38147	0.60303	0.058136	-0.177	0.028534	0.18234	0.063934	-0.041809	-0.63705	-0.002136	-0.014038
18.181	-0.014954	0.93857	0.21896	-0.00885	0.030823	0.00351	0.36148	-0.00946	0.040283	0.005188	-0.12451	0.006256	0.050507	0.11597	-0.39963	0.002594	-0.00824	-0.65353	-0.55191	-0.021973	-0.002899	-0.049438	0.30136	0.049438	-0.21439	0.015869	0.035095	-0.02533	0.000305	-0.6839	-0.002747	-0.009003
